<svg width="44" height="44" viewBox="0 0 44 44" fill="none" xmlns="http://www.w3.org/2000/svg">
<rect width="44" height="44" rx="22" fill="#161F28"/>
<path d="M26 16C26 13.7909 24.2091 12 22 12C19.7909 12 18 13.7909 18 16" stroke="white" stroke-width="1.5" stroke-linecap="round" stroke-linejoin="round"/>
<path d="M14.562 19.5039C14.8122 17.5021 16.5138 16 18.5311 16H25.4688C27.4861 16 29.1877 17.5021 29.438 19.5039L30.438 27.5039C30.7364 29.8913 28.8748 32 26.4688 32H17.5311C15.1251 32 13.2636 29.8913 13.562 27.5039L14.562 19.5039Z" stroke="white" stroke-width="1.5" stroke-linejoin="round"/>
<path d="M19 26C21.3561 27.3404 22.6476 27.3263 25 26" stroke="white" stroke-width="1.5" stroke-linecap="round" stroke-linejoin="round"/>
<circle cx="38" cy="7" r="4" fill="#F87265"/>
</svg>
