<svg width="335" height="48" viewBox="0 0 335 48" fill="none" xmlns="http://www.w3.org/2000/svg">
<rect width="335" height="48" rx="24" fill="#161F28"/>
<rect x="12" y="8" width="32" height="32" rx="16" fill="#161F28"/>
<path d="M32.6572 28.6572L35.165 31.165M34.4485 23.6417C34.4485 19.8825 31.401 16.835 27.6417 16.835C23.8824 16.835 20.835 19.8825 20.835 23.6417C20.835 27.401 23.8824 30.4485 27.6417 30.4485C31.401 30.4485 34.4485 27.401 34.4485 23.6417Z" stroke="#707B81" stroke-width="1.5" stroke-linecap="round" stroke-linejoin="round"/>
<path d="M57.092 29V19.06H58.268V27.922H62.692V29H57.092ZM67.2817 29.21C66.7684 29.21 66.2924 29.1167 65.8537 28.93C65.4244 28.734 65.0464 28.468 64.7197 28.132C64.4024 27.7867 64.155 27.3807 63.9777 26.914C63.8004 26.4473 63.7117 25.9387 63.7117 25.388C63.7117 24.8373 63.8004 24.3287 63.9777 23.862C64.1644 23.3953 64.4164 22.994 64.7337 22.658C65.0604 22.3127 65.443 22.0467 65.8817 21.86C66.3204 21.664 66.7964 21.566 67.3097 21.566C67.823 21.566 68.2944 21.664 68.7237 21.86C69.1624 22.0467 69.5404 22.3127 69.8577 22.658C70.1844 22.994 70.4364 23.3953 70.6137 23.862C70.791 24.3287 70.8797 24.8373 70.8797 25.388C70.8797 25.9387 70.7864 26.4473 70.5997 26.914C70.4224 27.3807 70.1704 27.7867 69.8437 28.132C69.5264 28.468 69.1484 28.734 68.7097 28.93C68.271 29.1167 67.795 29.21 67.2817 29.21ZM67.2957 28.188C67.6504 28.188 67.9724 28.118 68.2617 27.978C68.5604 27.838 68.817 27.6467 69.0317 27.404C69.2557 27.152 69.4284 26.858 69.5497 26.522C69.671 26.1767 69.7317 25.7987 69.7317 25.388C69.7317 24.9773 69.671 24.604 69.5497 24.268C69.4284 23.9227 69.2557 23.6287 69.0317 23.386C68.817 23.134 68.5604 22.938 68.2617 22.798C67.9724 22.658 67.6504 22.588 67.2957 22.588C66.941 22.588 66.6144 22.658 66.3157 22.798C66.0264 22.938 65.7697 23.134 65.5457 23.386C65.331 23.6287 65.163 23.9227 65.0417 24.268C64.9204 24.604 64.8597 24.9773 64.8597 25.388C64.8597 25.7987 64.9204 26.1767 65.0417 26.522C65.163 26.858 65.331 27.152 65.5457 27.404C65.7697 27.6467 66.0264 27.838 66.3157 27.978C66.6144 28.118 66.941 28.188 67.2957 28.188ZM75.7446 29.21C75.2313 29.21 74.7553 29.1167 74.3166 28.93C73.8873 28.734 73.5093 28.468 73.1826 28.132C72.8653 27.7867 72.6179 27.3807 72.4406 26.914C72.2633 26.4473 72.1746 25.9387 72.1746 25.388C72.1746 24.8373 72.2633 24.3287 72.4406 23.862C72.6273 23.3953 72.8793 22.994 73.1966 22.658C73.5233 22.3127 73.9059 22.0467 74.3446 21.86C74.7833 21.664 75.2593 21.566 75.7726 21.566C76.2859 21.566 76.7573 21.664 77.1866 21.86C77.6253 22.0467 78.0033 22.3127 78.3206 22.658C78.6473 22.994 78.8993 23.3953 79.0766 23.862C79.2539 24.3287 79.3426 24.8373 79.3426 25.388C79.3426 25.9387 79.2493 26.4473 79.0626 26.914C78.8853 27.3807 78.6333 27.7867 78.3066 28.132C77.9893 28.468 77.6113 28.734 77.1726 28.93C76.7339 29.1167 76.2579 29.21 75.7446 29.21ZM75.7586 28.188C76.1133 28.188 76.4353 28.118 76.7246 27.978C77.0233 27.838 77.2799 27.6467 77.4946 27.404C77.7186 27.152 77.8913 26.858 78.0126 26.522C78.1339 26.1767 78.1946 25.7987 78.1946 25.388C78.1946 24.9773 78.1339 24.604 78.0126 24.268C77.8913 23.9227 77.7186 23.6287 77.4946 23.386C77.2799 23.134 77.0233 22.938 76.7246 22.798C76.4353 22.658 76.1133 22.588 75.7586 22.588C75.4039 22.588 75.0773 22.658 74.7786 22.798C74.4893 22.938 74.2326 23.134 74.0086 23.386C73.7939 23.6287 73.6259 23.9227 73.5046 24.268C73.3833 24.604 73.3226 24.9773 73.3226 25.388C73.3226 25.7987 73.3833 26.1767 73.5046 26.522C73.6259 26.858 73.7939 27.152 74.0086 27.404C74.2326 27.6467 74.4893 27.838 74.7786 27.978C75.0773 28.118 75.4039 28.188 75.7586 28.188ZM80.9331 29V18.612H82.0531V24.8L85.4691 21.776H86.9111L83.2151 25.01L87.2471 29H85.7071L82.0531 25.304V29H80.9331ZM89.6733 19.662C89.6733 19.802 89.6359 19.9327 89.5613 20.054C89.4959 20.166 89.4026 20.2593 89.2813 20.334C89.1693 20.3993 89.0433 20.432 88.9033 20.432C88.7633 20.432 88.6326 20.3993 88.5113 20.334C88.3993 20.2593 88.3059 20.166 88.2313 20.054C88.1659 19.9327 88.1333 19.802 88.1333 19.662C88.1333 19.522 88.1659 19.396 88.2313 19.284C88.3059 19.1627 88.3993 19.0693 88.5113 19.004C88.6326 18.9293 88.7633 18.892 88.9033 18.892C89.0433 18.892 89.1693 18.9293 89.2813 19.004C89.4026 19.0693 89.4959 19.1627 89.5613 19.284C89.6359 19.396 89.6733 19.522 89.6733 19.662ZM88.3433 29V21.776H89.4633V29H88.3433ZM91.4195 29V21.776H92.4275L92.4835 22.924C92.6981 22.5133 93.0061 22.1867 93.4075 21.944C93.8181 21.692 94.2895 21.566 94.8215 21.566C95.3721 21.566 95.8528 21.6967 96.2635 21.958C96.6741 22.2193 96.9868 22.5927 97.2015 23.078C97.4255 23.554 97.5375 24.1187 97.5375 24.772V29H96.4175V24.842C96.4175 24.1233 96.2588 23.568 95.9415 23.176C95.6335 22.784 95.1901 22.588 94.6115 22.588C94.2101 22.588 93.8508 22.6813 93.5335 22.868C93.2255 23.0453 92.9828 23.2973 92.8055 23.624C92.6281 23.9413 92.5395 24.3053 92.5395 24.716V29H91.4195ZM102.427 28.93C101.951 28.93 101.508 28.8367 101.097 28.65C100.696 28.4633 100.341 28.2067 100.033 27.88C99.7342 27.544 99.5008 27.152 99.3328 26.704C99.1648 26.256 99.0808 25.7753 99.0808 25.262C99.0808 24.7393 99.1648 24.254 99.3328 23.806C99.5102 23.358 99.7528 22.966 100.061 22.63C100.369 22.294 100.728 22.0327 101.139 21.846C101.559 21.6593 102.007 21.566 102.483 21.566C103.034 21.566 103.533 21.6967 103.981 21.958C104.438 22.2193 104.793 22.5787 105.045 23.036L105.101 21.776H106.109V28.384C106.109 28.9347 106.025 29.434 105.857 29.882C105.689 30.3393 105.451 30.7313 105.143 31.058C104.835 31.3847 104.466 31.632 104.037 31.8C103.608 31.9773 103.132 32.066 102.609 32.066C102.152 32.066 101.722 31.996 101.321 31.856C100.92 31.7253 100.56 31.5293 100.243 31.268C99.9348 31.016 99.6782 30.7127 99.4728 30.358L100.411 29.882C100.682 30.274 100.999 30.5727 101.363 30.778C101.736 30.9927 102.152 31.1 102.609 31.1C103.094 31.1 103.514 30.988 103.869 30.764C104.233 30.5493 104.508 30.2413 104.695 29.84C104.891 29.4387 104.989 28.9673 104.989 28.426V27.502C104.728 27.95 104.373 28.3 103.925 28.552C103.477 28.804 102.978 28.93 102.427 28.93ZM102.623 27.908C102.968 27.908 103.286 27.8427 103.575 27.712C103.874 27.5813 104.13 27.3993 104.345 27.166C104.56 26.9233 104.723 26.6387 104.835 26.312C104.956 25.9853 105.017 25.6307 105.017 25.248C105.017 24.8653 104.956 24.5107 104.835 24.184C104.723 23.8573 104.56 23.5773 104.345 23.344C104.13 23.1013 103.874 22.9147 103.575 22.784C103.286 22.6533 102.968 22.588 102.623 22.588C102.278 22.588 101.956 22.6533 101.657 22.784C101.368 22.9147 101.116 23.1013 100.901 23.344C100.686 23.5773 100.518 23.8573 100.397 24.184C100.285 24.5107 100.229 24.8653 100.229 25.248C100.229 25.6307 100.285 25.9853 100.397 26.312C100.518 26.6387 100.686 26.9233 100.901 27.166C101.116 27.3993 101.368 27.5813 101.657 27.712C101.956 27.8427 102.278 27.908 102.623 27.908ZM111.708 29V22.728H110.378V21.776H111.708V21.104C111.708 20.572 111.806 20.11 112.002 19.718C112.198 19.3167 112.474 19.0087 112.828 18.794C113.192 18.5793 113.612 18.472 114.088 18.472C114.592 18.472 115.045 18.5933 115.446 18.836L115.124 19.704C114.984 19.6293 114.83 19.5687 114.662 19.522C114.494 19.4753 114.326 19.452 114.158 19.452C113.72 19.452 113.388 19.5967 113.164 19.886C112.94 20.1753 112.828 20.5907 112.828 21.132V21.776H115.11V22.728H112.828V29H111.708ZM119.426 29.21C118.913 29.21 118.437 29.1167 117.998 28.93C117.569 28.734 117.191 28.468 116.864 28.132C116.547 27.7867 116.3 27.3807 116.122 26.914C115.945 26.4473 115.856 25.9387 115.856 25.388C115.856 24.8373 115.945 24.3287 116.122 23.862C116.309 23.3953 116.561 22.994 116.878 22.658C117.205 22.3127 117.588 22.0467 118.026 21.86C118.465 21.664 118.941 21.566 119.454 21.566C119.968 21.566 120.439 21.664 120.868 21.86C121.307 22.0467 121.685 22.3127 122.002 22.658C122.329 22.994 122.581 23.3953 122.758 23.862C122.936 24.3287 123.024 24.8373 123.024 25.388C123.024 25.9387 122.931 26.4473 122.744 26.914C122.567 27.3807 122.315 27.7867 121.988 28.132C121.671 28.468 121.293 28.734 120.854 28.93C120.416 29.1167 119.94 29.21 119.426 29.21ZM119.44 28.188C119.795 28.188 120.117 28.118 120.406 27.978C120.705 27.838 120.962 27.6467 121.176 27.404C121.4 27.152 121.573 26.858 121.694 26.522C121.816 26.1767 121.876 25.7987 121.876 25.388C121.876 24.9773 121.816 24.604 121.694 24.268C121.573 23.9227 121.4 23.6287 121.176 23.386C120.962 23.134 120.705 22.938 120.406 22.798C120.117 22.658 119.795 22.588 119.44 22.588C119.086 22.588 118.759 22.658 118.46 22.798C118.171 22.938 117.914 23.134 117.69 23.386C117.476 23.6287 117.308 23.9227 117.186 24.268C117.065 24.604 117.004 24.9773 117.004 25.388C117.004 25.7987 117.065 26.1767 117.186 26.522C117.308 26.858 117.476 27.152 117.69 27.404C117.914 27.6467 118.171 27.838 118.46 27.978C118.759 28.118 119.086 28.188 119.44 28.188ZM124.615 29V21.776H125.623L125.693 23.12C125.87 22.672 126.136 22.322 126.491 22.07C126.845 21.8087 127.261 21.678 127.737 21.678C127.895 21.678 128.035 21.692 128.157 21.72C128.287 21.7387 128.399 21.7667 128.493 21.804L128.353 22.868C128.25 22.8307 128.143 22.8073 128.031 22.798C127.919 22.7793 127.807 22.77 127.695 22.77C127.303 22.77 126.957 22.868 126.659 23.064C126.369 23.26 126.141 23.54 125.973 23.904C125.814 24.2587 125.735 24.6787 125.735 25.164V29H124.615ZM135.209 29.21C134.789 29.21 134.393 29.14 134.019 29C133.655 28.86 133.338 28.6593 133.067 28.398C132.797 28.1367 132.591 27.8287 132.451 27.474L133.459 27.11C133.646 27.4647 133.889 27.74 134.187 27.936C134.486 28.132 134.827 28.23 135.209 28.23C135.517 28.23 135.788 28.1787 136.021 28.076C136.255 27.9733 136.437 27.8333 136.567 27.656C136.698 27.4693 136.763 27.264 136.763 27.04C136.763 26.4333 136.325 26.0413 135.447 25.864L134.901 25.752C134.136 25.6027 133.571 25.36 133.207 25.024C132.843 24.6787 132.661 24.2447 132.661 23.722C132.661 23.302 132.769 22.9287 132.983 22.602C133.198 22.2753 133.497 22.0233 133.879 21.846C134.271 21.6593 134.715 21.566 135.209 21.566C135.62 21.566 135.998 21.636 136.343 21.776C136.689 21.9067 136.983 22.1027 137.225 22.364C137.477 22.6253 137.669 22.9333 137.799 23.288L136.791 23.624C136.642 23.2787 136.427 23.0127 136.147 22.826C135.877 22.63 135.559 22.532 135.195 22.532C134.915 22.532 134.668 22.5787 134.453 22.672C134.248 22.7653 134.085 22.8913 133.963 23.05C133.842 23.2087 133.781 23.3953 133.781 23.61C133.781 23.9087 133.893 24.1467 134.117 24.324C134.351 24.5013 134.724 24.6413 135.237 24.744L135.783 24.856C136.474 24.996 137.001 25.2433 137.365 25.598C137.729 25.9433 137.911 26.3867 137.911 26.928C137.911 27.264 137.841 27.572 137.701 27.852C137.571 28.1227 137.384 28.3607 137.141 28.566C136.908 28.7713 136.623 28.93 136.287 29.042C135.961 29.154 135.601 29.21 135.209 29.21ZM139.394 29V18.612H140.514V22.826C140.729 22.4433 141.037 22.14 141.438 21.916C141.839 21.6827 142.292 21.566 142.796 21.566C143.347 21.566 143.827 21.6967 144.238 21.958C144.649 22.2193 144.961 22.5927 145.176 23.078C145.4 23.554 145.512 24.1187 145.512 24.772V29H144.392V24.842C144.392 24.1233 144.233 23.568 143.916 23.176C143.608 22.784 143.165 22.588 142.586 22.588C142.185 22.588 141.825 22.6813 141.508 22.868C141.2 23.0453 140.957 23.2973 140.78 23.624C140.603 23.9413 140.514 24.3053 140.514 24.716V29H139.394ZM150.625 29.21C150.112 29.21 149.636 29.1167 149.197 28.93C148.768 28.734 148.39 28.468 148.063 28.132C147.746 27.7867 147.499 27.3807 147.321 26.914C147.144 26.4473 147.055 25.9387 147.055 25.388C147.055 24.8373 147.144 24.3287 147.321 23.862C147.508 23.3953 147.76 22.994 148.077 22.658C148.404 22.3127 148.787 22.0467 149.225 21.86C149.664 21.664 150.14 21.566 150.653 21.566C151.167 21.566 151.638 21.664 152.067 21.86C152.506 22.0467 152.884 22.3127 153.201 22.658C153.528 22.994 153.78 23.3953 153.957 23.862C154.135 24.3287 154.223 24.8373 154.223 25.388C154.223 25.9387 154.13 26.4473 153.943 26.914C153.766 27.3807 153.514 27.7867 153.187 28.132C152.87 28.468 152.492 28.734 152.053 28.93C151.615 29.1167 151.139 29.21 150.625 29.21ZM150.639 28.188C150.994 28.188 151.316 28.118 151.605 27.978C151.904 27.838 152.161 27.6467 152.375 27.404C152.599 27.152 152.772 26.858 152.893 26.522C153.015 26.1767 153.075 25.7987 153.075 25.388C153.075 24.9773 153.015 24.604 152.893 24.268C152.772 23.9227 152.599 23.6287 152.375 23.386C152.161 23.134 151.904 22.938 151.605 22.798C151.316 22.658 150.994 22.588 150.639 22.588C150.285 22.588 149.958 22.658 149.659 22.798C149.37 22.938 149.113 23.134 148.889 23.386C148.675 23.6287 148.507 23.9227 148.385 24.268C148.264 24.604 148.203 24.9773 148.203 25.388C148.203 25.7987 148.264 26.1767 148.385 26.522C148.507 26.858 148.675 27.152 148.889 27.404C149.113 27.6467 149.37 27.838 149.659 27.978C149.958 28.118 150.285 28.188 150.639 28.188ZM159.158 29.21C158.626 29.21 158.136 29.1167 157.688 28.93C157.25 28.7433 156.867 28.482 156.54 28.146C156.214 27.8007 155.962 27.3993 155.784 26.942C155.607 26.4753 155.518 25.962 155.518 25.402C155.518 24.8513 155.602 24.3473 155.77 23.89C155.948 23.4233 156.19 23.0173 156.498 22.672C156.816 22.3267 157.184 22.0607 157.604 21.874C158.024 21.678 158.482 21.58 158.976 21.58C159.452 21.58 159.891 21.6687 160.292 21.846C160.703 22.0233 161.058 22.2707 161.356 22.588C161.655 22.9053 161.884 23.2833 162.042 23.722C162.21 24.1607 162.294 24.6367 162.294 25.15V25.612H156.68C156.718 26.1347 156.839 26.592 157.044 26.984C157.259 27.376 157.544 27.6793 157.898 27.894C158.253 28.1087 158.664 28.216 159.13 28.216C159.588 28.216 159.984 28.1227 160.32 27.936C160.666 27.74 160.96 27.4553 161.202 27.082L162.154 27.516C161.968 27.8707 161.725 28.174 161.426 28.426C161.128 28.678 160.782 28.8693 160.39 29C160.008 29.14 159.597 29.21 159.158 29.21ZM158.976 22.532C158.594 22.532 158.244 22.6253 157.926 22.812C157.618 22.9987 157.357 23.26 157.142 23.596C156.937 23.9227 156.802 24.3053 156.736 24.744H161.118C161.081 24.3053 160.964 23.9227 160.768 23.596C160.572 23.26 160.32 22.9987 160.012 22.812C159.704 22.6253 159.359 22.532 158.976 22.532ZM166.203 29.21C165.783 29.21 165.387 29.14 165.013 29C164.649 28.86 164.332 28.6593 164.061 28.398C163.791 28.1367 163.585 27.8287 163.445 27.474L164.453 27.11C164.64 27.4647 164.883 27.74 165.181 27.936C165.48 28.132 165.821 28.23 166.203 28.23C166.511 28.23 166.782 28.1787 167.015 28.076C167.249 27.9733 167.431 27.8333 167.561 27.656C167.692 27.4693 167.757 27.264 167.757 27.04C167.757 26.4333 167.319 26.0413 166.441 25.864L165.895 25.752C165.13 25.6027 164.565 25.36 164.201 25.024C163.837 24.6787 163.655 24.2447 163.655 23.722C163.655 23.302 163.763 22.9287 163.977 22.602C164.192 22.2753 164.491 22.0233 164.873 21.846C165.265 21.6593 165.709 21.566 166.203 21.566C166.614 21.566 166.992 21.636 167.337 21.776C167.683 21.9067 167.977 22.1027 168.219 22.364C168.471 22.6253 168.663 22.9333 168.793 23.288L167.785 23.624C167.636 23.2787 167.421 23.0127 167.141 22.826C166.871 22.63 166.553 22.532 166.189 22.532C165.909 22.532 165.662 22.5787 165.447 22.672C165.242 22.7653 165.079 22.8913 164.957 23.05C164.836 23.2087 164.775 23.3953 164.775 23.61C164.775 23.9087 164.887 24.1467 165.111 24.324C165.345 24.5013 165.718 24.6413 166.231 24.744L166.777 24.856C167.468 24.996 167.995 25.2433 168.359 25.598C168.723 25.9433 168.905 26.3867 168.905 26.928C168.905 27.264 168.835 27.572 168.695 27.852C168.565 28.1227 168.378 28.3607 168.135 28.566C167.902 28.7713 167.617 28.93 167.281 29.042C166.955 29.154 166.595 29.21 166.203 29.21Z" fill="#707B81"/>
</svg>
