<svg width="93" height="44" viewBox="0 0 93 44" fill="none" xmlns="http://www.w3.org/2000/svg">
<rect x="0.5" width="92" height="44" rx="22" fill="#5B9EE1"/>
<rect x="6.5" y="6" width="32" height="32" rx="16" fill="white"/>
<path d="M18.7337 23.333L21.2164 16.353H19.5753L18.4391 19.3821L18.6916 16.353H16.9663L14.4836 23.333H16.0826L17.303 19.9528L17.0926 23.2452L18.7337 23.333ZM20.6693 23.333L23.152 16.353H21.5951L19.0703 23.333H20.6693ZM25.1719 22.8941L25.0877 19.3821L27.4442 16.5286L25.1719 22.8941ZM36.6176 20.4357L28.6224 22.5868L28.8328 21.9283H27.1496L27.6967 20.2601H29.1274L29.5482 18.987L28.1175 19.0748L28.6224 17.67H30.011L30.4739 16.3969H25.9714L24.3303 18.4163L25.1298 16.353H23.5308L21.0481 23.333H22.6892L23.7412 20.3479V23.333H25.8451L18.3129 25.3963C17.5274 25.6305 16.826 25.7329 16.2089 25.7036C15.5917 25.6744 15.1148 25.4988 14.7782 25.1768C14.0207 24.5915 13.7542 23.6989 13.9786 22.499C14.1189 21.7088 14.4275 20.9478 14.9044 20.2162C13.7823 21.4454 12.9547 22.4843 12.4217 23.333C11.8326 24.2403 11.4539 25.1329 11.2855 26.0109C11.1172 26.8889 11.2154 27.606 11.5801 28.162C12.5619 29.8595 14.708 29.9766 18.0183 28.5132L36.6176 20.4357Z" fill="#1A2530"/>
<path d="M47.48 27V17.06H48.992L53.948 24.172V17.06H55.614V27H54.102L49.146 19.86V27H47.48ZM59.2358 17.634C59.2358 17.8113 59.1892 17.9747 59.0958 18.124C59.0118 18.2733 58.8952 18.3947 58.7458 18.488C58.5965 18.572 58.4332 18.614 58.2558 18.614C58.0785 18.614 57.9152 18.572 57.7658 18.488C57.6165 18.3947 57.4952 18.2733 57.4018 18.124C57.3178 17.9747 57.2758 17.8113 57.2758 17.634C57.2758 17.4567 57.3178 17.2933 57.4018 17.144C57.4952 16.9947 57.6165 16.878 57.7658 16.794C57.9152 16.7007 58.0785 16.654 58.2558 16.654C58.4332 16.654 58.5965 16.7007 58.7458 16.794C58.8952 16.878 59.0118 16.9947 59.0958 17.144C59.1892 17.2933 59.2358 17.4567 59.2358 17.634ZM57.4578 27V19.678H59.0678V27H57.4578ZM60.8075 27V16.584H62.4175V22.702L65.4135 19.678H67.3735L64.0835 22.926L67.7095 27H65.5955L62.4175 23.304V27H60.8075ZM71.7153 27.21C71.174 27.21 70.6746 27.1167 70.2173 26.93C69.7693 26.734 69.3773 26.4633 69.0413 26.118C68.7053 25.7727 68.444 25.3667 68.2573 24.9C68.08 24.424 67.9913 23.9013 67.9913 23.332C67.9913 22.7813 68.08 22.2727 68.2573 21.806C68.444 21.3393 68.696 20.9333 69.0133 20.588C69.34 20.2333 69.7226 19.958 70.1613 19.762C70.6 19.566 71.076 19.468 71.5893 19.468C72.1026 19.468 72.5693 19.5613 72.9893 19.748C73.4186 19.9253 73.7873 20.182 74.0953 20.518C74.4126 20.854 74.6553 21.2553 74.8233 21.722C74.9913 22.1793 75.0753 22.688 75.0753 23.248V23.724H69.6573C69.704 24.1533 69.816 24.5267 69.9933 24.844C70.18 25.152 70.418 25.39 70.7073 25.558C70.9966 25.726 71.3326 25.81 71.7153 25.81C72.4806 25.81 73.078 25.4693 73.5073 24.788L74.9213 25.334C74.7533 25.7167 74.506 26.0527 74.1793 26.342C73.862 26.622 73.4886 26.8367 73.0593 26.986C72.6393 27.1353 72.1913 27.21 71.7153 27.21ZM71.5893 20.77C71.2626 20.77 70.9686 20.8447 70.7073 20.994C70.4553 21.1433 70.2406 21.3533 70.0633 21.624C69.886 21.8947 69.7646 22.212 69.6993 22.576H73.3953C73.3393 22.212 73.232 21.8947 73.0733 21.624C72.9146 21.3533 72.7046 21.1433 72.4433 20.994C72.1913 20.8447 71.9066 20.77 71.5893 20.77Z" fill="white"/>
</svg>
